<?xml version="1.0" standalone="no"?>
<!DOCTYPE svg PUBLIC "-//W3C//DTD SVG 20010904//EN"
 "http://www.w3.org/TR/2001/REC-SVG-20010904/DTD/svg10.dtd">
<svg version="1.0" xmlns="http://www.w3.org/2000/svg"
 width="512.000000pt" height="512.000000pt" viewBox="0 0 512.000000 512.000000"
 preserveAspectRatio="xMidYMid meet">

<g transform="translate(0.000000,512.000000) scale(0.100000,-0.100000)"
fill="#000000" stroke="none">
<path d="M0 2560 l0 -2560 2560 0 2560 0 0 2560 0 2560 -2560 0 -2560 0 0
-2560z m5110 0 l0 -2550 -2550 0 -2550 0 0 2550 0 2550 2550 0 2550 0 0 -2550z"/>
<path d="M3241 4046 c-40 -14 40 52 -846 -704 -424 -362 -743 -641 -761 -667
-64 -89 -51 -195 33 -277 26 -25 382 -331 790 -680 766 -655 769 -658 855
-658 55 0 136 46 168 97 60 95 45 195 -42 279 -29 28 -333 290 -675 583 -343
293 -623 535 -622 539 0 4 277 243 615 532 777 663 740 629 759 693 50 169
-110 323 -274 263z"/>
</g>
</svg>
